<svg width="32" height="32" viewBox="0 0 32 32" fill="none" xmlns="http://www.w3.org/2000/svg">
<path d="M23.9987 17.5727V13.3327C23.9968 11.4435 23.3264 9.61597 22.1062 8.17372C20.886 6.73146 19.1948 5.76754 17.332 5.45268V3.99935C17.332 3.64573 17.1916 3.30659 16.9415 3.05654C16.6915 2.80649 16.3523 2.66602 15.9987 2.66602C15.6451 2.66602 15.3059 2.80649 15.0559 3.05654C14.8058 3.30659 14.6654 3.64573 14.6654 3.99935V5.45268C12.8026 5.76754 11.1114 6.73146 9.89121 8.17372C8.67103 9.61597 8.00061 11.4435 7.9987 13.3327V17.5727C7.22063 17.8478 6.5467 18.3568 6.06928 19.0299C5.59187 19.7031 5.33435 20.5074 5.33203 21.3327V23.9993C5.33203 24.353 5.47251 24.6921 5.72256 24.9422C5.9726 25.1922 6.31174 25.3327 6.66536 25.3327H10.852C11.1591 26.4625 11.8294 27.4599 12.7595 28.171C13.6896 28.8821 14.8279 29.2673 15.9987 29.2673C17.1695 29.2673 18.3078 28.8821 19.2379 28.171C20.168 27.4599 20.8383 26.4625 21.1454 25.3327H25.332C25.6857 25.3327 26.0248 25.1922 26.2748 24.9422C26.5249 24.6921 26.6654 24.353 26.6654 23.9993V21.3327C26.663 20.5074 26.4055 19.7031 25.9281 19.0299C25.4507 18.3568 24.7768 17.8478 23.9987 17.5727ZM10.6654 13.3327C10.6654 11.9182 11.2273 10.5616 12.2275 9.56145C13.2277 8.56125 14.5842 7.99935 15.9987 7.99935C17.4132 7.99935 18.7697 8.56125 19.7699 9.56145C20.7701 10.5616 21.332 11.9182 21.332 13.3327V17.3327H10.6654V13.3327ZM15.9987 26.666C15.5333 26.6632 15.0768 26.5387 14.6745 26.3048C14.2721 26.0708 13.938 25.7357 13.7054 25.3327H18.292C18.0594 25.7357 17.7252 26.0708 17.3229 26.3048C16.9206 26.5387 16.4641 26.6632 15.9987 26.666ZM23.9987 22.666H7.9987V21.3327C7.9987 20.9791 8.13917 20.6399 8.38922 20.3899C8.63927 20.1398 8.97841 19.9993 9.33203 19.9993H22.6654C23.019 19.9993 23.3581 20.1398 23.6082 20.3899C23.8582 20.6399 23.9987 20.9791 23.9987 21.3327V22.666Z" fill="#424C5D"/>
</svg>
